HIERARCHY
ROOT Hips
{
    OFFSET 0.000000 0.000000 0.000000
    CHANNELS 6 Xposition Yposition Zposition Zrotation Xrotation Yrotation
    JOINT Spine
    {
        OFFSET -0.000000 8.603107 0.000000
        CHANNELS 3 Zrotation Xrotation Yrotation
        JOINT Spine1
        {
            OFFSET -0.000000 23.906662 0.000000
            CHANNELS 3 Zrotation Xrotation Yrotation
            JOINT Neck
            {
                OFFSET -0.000000 23.808481 2.164407
                CHANNELS 3 Zrotation Xrotation Yrotation
                JOINT Head
                {
                    OFFSET -0.000000 14.688231 -2.098319
                    CHANNELS 3 Zrotation Xrotation Yrotation
                    End Site
                    {
                        OFFSET -0.000000 26.228985 0.000000
                    }
                }
            }
            JOINT LeftShoulder
            {
                OFFSET 4.178941 22.658146 -0.129871
                CHANNELS 3 Zrotation Xrotation Yrotation
                JOINT LeftArm
                {
                    OFFSET 9.497952 0.000000 0.000000
                    CHANNELS 3 Zrotation Xrotation Yrotation
                    JOINT LeftForeArm
                    {
                        OFFSET 38.855015 0.000000 0.000000
                        CHANNELS 3 Zrotation Xrotation Yrotation
                        JOINT LeftHand
                        {
                            OFFSET 24.940550 0.000000 0.000000
                            CHANNELS 3 Zrotation Xrotation Yrotation
                            End Site
                            {
                                OFFSET 15.737392 0.000000 0.000000
                            }
                        }
                    }
                }
            }
            JOINT RightShoulder
            {
                OFFSET -4.145384 22.658146 -0.129871
                CHANNELS 3 Zrotation Xrotation Yrotation
                JOINT RightArm
                {
                    OFFSET -9.497952 0.000000 0.000000
                    CHANNELS 3 Zrotation Xrotation Yrotation
                    JOINT RightForeArm
                    {
                        OFFSET -38.855015 0.000000 0.000000
                        CHANNELS 3 Zrotation Xrotation Yrotation
                        JOINT RightHand
                        {
                            OFFSET -24.940550 0.000000 0.000000
                            CHANNELS 3 Zrotation Xrotation Yrotation
                            End Site
                            {
                                OFFSET -15.737392 0.000000 0.000000
                            }
                        }
                    }
                }
            }
        }
    }
    JOINT LeftUpLeg
    {
        OFFSET 10.491594 0.000000 0.000000
        CHANNELS 3 Zrotation Xrotation Yrotation
        JOINT LeftLeg
        {
            OFFSET -0.000000 -46.080647 0.000000
            CHANNELS 3 Zrotation Xrotation Yrotation
            JOINT LeftFoot
            {
                OFFSET -0.000000 -50.184704 0.000000
                CHANNELS 3 Zrotation Xrotation Yrotation
                JOINT LeftToeBase
                {
                    OFFSET -0.000000 -6.819536 15.737392
                    CHANNELS 3 Zrotation Xrotation Yrotation
                    End Site
                    {
                        OFFSET -0.000000 0.000000 4.196638
                    }
                }
            }
        }
    }
    JOINT RightUpLeg
    {
        OFFSET -10.491594 0.000000 0.000000
        CHANNELS 3 Zrotation Xrotation Yrotation
        JOINT RightLeg
        {
            OFFSET -0.000000 -46.080647 0.000000
            CHANNELS 3 Zrotation Xrotation Yrotation
            JOINT RightFoot
            {
                OFFSET -0.000000 -50.184704 0.000000
                CHANNELS 3 Zrotation Xrotation Yrotation
                JOINT RightToeBase
                {
                    OFFSET -0.000000 -6.819536 15.737392
                    CHANNELS 3 Zrotation Xrotation Yrotation
                    End Site
                    {
                        OFFSET -0.000000 0.000000 4.196638
                    }
                }
            }
        }
    }
}
MOTION
Frames:    4
Frame Time:    0.008333
-7.356870    103.089127    40.330685    0.058410    0.008068    92.281189    0.715821    -5.458144    -0.124756    -1.727100    -3.063724    -0.205261    5.525643    15.197990    0.839422    0.157401    1.361543    0.839011    14.329926    -4.278842    -10.776739    -16.601988    -0.849001    5.534472    0.451377    -0.561776    -0.990645    -1.372901    -0.596656    3.238780    -15.210732    -2.143217    -7.034648    16.791651    -4.790532    4.249207    -1.331102    -5.466879    -0.209559    -3.786860    -5.370088    -3.014158    -0.520389    1.119864    0.198666    -3.063126    10.165561    0.399890    2.034949    -10.405103    14.590695    0.000000    0.000000    0.000000    -0.579146    5.161589    -2.477359    2.335725    1.018593    -0.973062    -0.947065    -5.555602    -10.778043    0.000000    0.000000    0.000000    
-7.348713    103.092537    40.326424    0.043576    0.004411    92.290764    0.735066    -5.457484    -0.117240    -1.762359    -3.096807    -0.200011    5.538824    15.226502    0.831187    0.186687    1.333735    0.835637    14.343502    -4.247960    -10.801937    -16.608532    -0.882900    5.535783    0.434870    -0.529604    -0.972211    -1.295395    -0.562624    3.232760    -15.158232    -2.105687    -7.052109    16.774927    -4.813251    4.243621    -1.324002    -5.443776    -0.235137    -3.746281    -5.351564    -2.914603    -0.522084    1.103934    0.208781    -3.052949    10.175489    0.392951    2.033741    -10.395400    14.570434    0.000000    0.000000    0.000000    -0.577879    5.161050    -2.475008    2.339843    0.999434    -1.000164    -0.952971    -5.538338    -10.767034    0.000000    0.000000    0.000000    
-7.345811    103.093697    40.323250    0.034311    0.003499    92.298698    0.742674    -5.472225    -0.130315    -1.757997    -3.085329    -0.213030    5.498218    15.218840    0.842716    0.207137    1.325861    0.850352    14.312729    -4.249074    -10.784598    -16.588190    -0.891660    5.553156    0.426520    -0.531451    -0.988231    -1.294508    -0.564515    3.248220    -15.181973    -2.113495    -7.022895    16.796509    -4.852705    4.228920    -1.315674    -5.436323    -0.261356    -3.676514    -5.346134    -2.915393    -0.520291    1.093718    0.196665    -3.059043    10.177607    0.392150    2.035677    -10.387782    14.571748    0.000000    0.000000    0.000000    -0.581013    5.155929    -2.477260    2.339315    0.997805    -0.988967    -0.917217    -5.538894    -10.769995    0.000000    0.000000    0.000000    
-7.340537    103.093399    40.321915    0.036962    0.001381    92.300720    0.750976    -5.464008    -0.129677    -1.764518    -3.092138    -0.213140    5.515705    15.213592    0.845676    0.163466    1.298215    0.847285    14.305104    -4.249938    -10.782445    -16.587894    -0.886463    5.558114    0.423622    -0.550271    -0.986685    -1.264050    -0.582515    3.250391    -15.173370    -2.093417    -7.029763    16.800926    -4.911743    4.235435    -1.319628    -5.409177    -0.272271    -3.624932    -5.321545    -2.879968    -0.515922    1.098909    0.196883    -3.063121    10.179712    0.380007    2.071105    -10.379649    14.576919    0.000000    0.000000    0.000000    -0.582160    5.161456    -2.468569    2.347885    1.000355    -0.982521    -0.933647    -5.545176    -10.792480    0.000000    0.000000    0.000000    
